<?xml version="1.0" encoding="UTF-8" standalone="no"?>
<!-- Created with Inkscape (http://www.inkscape.org/) -->

<svg
	xmlns:dc="http://purl.org/dc/elements/1.1/"
	xmlns:cc="http://creativecommons.org/ns#"
	xmlns:rdf="http://www.w3.org/1999/02/22-rdf-syntax-ns#"
	xmlns="http://www.w3.org/2000/svg"
	xmlns:sodipodi="http://sodipodi.sourceforge.net/DTD/sodipodi-0.dtd"
	xmlns:inkscape="http://www.inkscape.org/namespaces/inkscape"
	width="288"
	height="288.00006"
	viewBox="0 0 76.199999 76.200018"
	version="1.1"
	id="svg8"
	inkscape:version="0.92.1 r15371"
	sodipodi:docname="logo.svg">
	<defs
		id="defs2"/>
	<sodipodi:namedview
		id="base"
		pagecolor="#ffffff"
		bordercolor="#666666"
		borderopacity="1.0"
		inkscape:pageopacity="0.0"
		inkscape:pageshadow="2"
		inkscape:zoom="3.959798"
		inkscape:cx="111.369"
		inkscape:cy="5.6158278"
		inkscape:document-units="mm"
		inkscape:current-layer="layer1"
		showgrid="true"
		units="px"
		inkscape:window-width="1920"
		inkscape:window-height="1017"
		inkscape:window-x="-8"
		inkscape:window-y="-8"
		inkscape:window-maximized="1"
		fit-margin-top="0"
		fit-margin-left="0"
		fit-margin-right="0"
		fit-margin-bottom="0">
		<inkscape:grid
			type="xygrid"
			id="grid4485"
			empspacing="2"
			originx="4.2333331"
			originy="4.2333389"/>
	</sodipodi:namedview>
	<metadata
		id="metadata5">
		<rdf:RDF>
			<cc:Work
				rdf:about="">
				<dc:format>image/svg+xml</dc:format>
				<dc:type
					rdf:resource="http://purl.org/dc/dcmitype/StillImage"/>
				<dc:title/>
			</cc:Work>
		</rdf:RDF>
	</metadata>
	<g
		inkscape:label="Layer 1"
		inkscape:groupmode="layer"
		id="layer1"
		transform="translate(4.2333331,-225.03331)">
		<rect
			style="opacity:1;fill:#0066ff;fill-opacity:1;stroke:none;stroke-width:0.08929689;stroke-linecap:butt;stroke-linejoin:round;stroke-miterlimit:4;stroke-dasharray:none;stroke-opacity:1;paint-order:normal"
			id="rect4526"
			width="76.199997"
			height="76.200012"
			x="-4.2333331"
			y="225.03331"
			ry="4.7625046"/>
		<path
			style="opacity:1;fill:#0056d8;fill-opacity:1;stroke:none;stroke-width:0.33750007;stroke-linecap:butt;stroke-linejoin:round;stroke-miterlimit:4;stroke-dasharray:none;stroke-opacity:1;paint-order:normal"
			d="M 266.74023,-10.740234 -10.740234,266.74023 C -7.4867312,269.99374 -2.9860048,272 2,272 h 252 c 9.97201,0 18,-8.02799 18,-18 V 2 c 0,-4.9860048 -2.00626,-9.4867312 -5.25977,-12.740234 z"
			transform="matrix(0.26458333,0,0,0.26458333,0,229.26665)"
			id="rect4512"
			inkscape:connector-curvature="0"/>
		<path
			style="opacity:1;fill:#ffffff;fill-opacity:1;stroke:none;stroke-width:1.68374491;stroke-linecap:butt;stroke-linejoin:round;stroke-miterlimit:4;stroke-dasharray:none;stroke-opacity:1;paint-order:normal"
			d="M 32 32 L 32 220 L 32 256 L 68 256 L 256 256 L 256 220 L 68 220 L 68 32 L 32 32 z "
			transform="matrix(0.26458333,0,0,0.26458333,-4.2333331,225.03331)"
			id="rect4487"/>
		<path
			style="opacity:1;fill:#ffffff;fill-opacity:1;stroke:none;stroke-width:0.27623242;stroke-linecap:butt;stroke-linejoin:round;stroke-miterlimit:4;stroke-dasharray:none;stroke-opacity:1;paint-order:normal"
			d="M 92 92 L 92 196 L 128 196 L 196 196 L 196 152 L 128 152 L 128 92 L 92 92 z "
			transform="matrix(0.26458333,0,0,0.26458333,-4.2333331,225.03331)"
			id="rect4491"/>
		<path
			style="opacity:1;fill:#ffffff;fill-opacity:1;stroke:none;stroke-width:0.59999973;stroke-linecap:butt;stroke-linejoin:round;stroke-miterlimit:4;stroke-dasharray:none;stroke-opacity:1;paint-order:normal"
			d="M 220 32 L 220 92 L 156 92 L 156 128 L 220 128 L 220 196 L 256 196 L 256 32 L 220 32 z "
			transform="matrix(0.26458333,0,0,0.26458333,-4.2333331,225.03331)"
			id="rect4493"/>
		<path
			transform="rotate(90)"
			style="opacity:1;fill:#ffffff;fill-opacity:1;stroke:none;stroke-width:0.20236732;stroke-linecap:butt;stroke-linejoin:round;stroke-miterlimit:4;stroke-dasharray:none;stroke-opacity:1;paint-order:normal"
			d="m 233.49998,-47.625 h 9.525 v 27.516666 h -9.525 z"
			id="rect4499"
			inkscape:connector-curvature="0"
			sodipodi:nodetypes="ccccc"/>
	</g>
</svg>
